<?xml version="1.0" encoding="UTF-8"?>
<svg width="768px" height="768px" viewBox="0 0 768 768" version="1.1" xmlns="http://www.w3.org/2000/svg" xmlns:xlink="http://www.w3.org/1999/xlink">
    <!-- Generator: Sketch 62 (91390) - https://sketch.com -->
    <title>noun_loading_2397684</title>
    <desc>Created with Sketch.</desc>
    <g id="Page-1" stroke="none" stroke-width="1" fill="none" fill-rule="evenodd">
        <g id="noun_loading_2397684" fill="#000000" fill-rule="nonzero">
            <path d="M479.82,670 C530.79,652.94 556.74,730.45 505.76,747.51 C459.33,763.11 409.97,769.61 361.08,766.73 C149.63,754.24 -11.81,572.54 0.68,361.09 C13.17,149.64 194.87,-11.81 406.32,0.68 C617.77,13.17 779.21,194.87 766.72,406.32 C765.72,423.41 763.47,441.36 760.16,458.15 C749.84,511.02 669.44,495.34 679.76,442.46 C682.5,428.61 684.22,415.61 685.05,401.52 C694.87,235.3 567.75,92.17 401.52,82.36 C235.3,72.54 92.17,199.66 82.36,365.89 C72.54,532.11 199.65,675.24 365.88,685.05 C404.66,687.34 442.98,682.37 479.82,670 Z" id="Path"></path>
        </g>
    </g>
</svg>