<?xml version="1.0" encoding="UTF-8"?>
<svg width="168px" height="180px" viewBox="0 0 168 180" version="1.1" xmlns="http://www.w3.org/2000/svg" xmlns:xlink="http://www.w3.org/1999/xlink">
    <!-- Generator: Sketch 62 (91390) - https://sketch.com -->
    <title>noun_play_410051</title>
    <desc>Created with Sketch.</desc>
    <g id="Page-1" stroke="none" stroke-width="1" fill="none" fill-rule="evenodd">
        <g id="noun_play_410051" fill="#000000" fill-rule="nonzero">
            <path d="M14.5,179.6 C12,179.6 9.5,178.9 7.4,177.7 C3.3,175.3 0.8,171 0.8,166.4 L0.8,13.8 C0.8,9.1 3.2,4.9 7.4,2.5 C11.6,-6.21724894e-15 16.9,-0.1 21.3,2.3 L160.6,78.5 C165,80.9 167.6,85.2 167.6,90.1 C167.6,95 165,99.3 160.6,101.7 L21.3,177.9 C19.1,179 16.8,179.6 14.5,179.6 Z M14.5,12.5 C14,12.5 13.6,12.7 13.5,12.8 C13.1,13.1 12.8,13.4 12.8,13.8 L12.8,166.3 C12.8,166.7 13,167.1 13.5,167.3 C13.7,167.4 14.6,167.8 15.5,167.3 L154.8,91.1 C155.3,90.8 155.5,90.5 155.5,90 C155.5,89.6 155.3,89.2 154.8,89 L15.5,12.8 C15.1,12.6 14.8,12.5 14.5,12.5 Z" id="Shape"></path>
        </g>
    </g>
</svg>