<?xml version="1.0" encoding="UTF-8"?>
<svg width="252px" height="123px" viewBox="0 0 252 123" version="1.1" xmlns="http://www.w3.org/2000/svg" xmlns:xlink="http://www.w3.org/1999/xlink">
    <g id="Page-1" stroke="none" stroke-width="1" fill="none" fill-rule="evenodd">
        <g fill="currentColor" fill-rule="nonzero">
            <path d="M251.9,61.3 C251.9,95.7 227.7,122.6 196.8,122.6 C162,122.6 132.9,99.8 120.9,63.2 C110.6,31.7 85.9,12.1 56.4,12.1 C56.3,12.1 56.2,12.1 56.2,12.1 C56.1,12.1 56,12.1 56,12.1 C31.8,12.1 12.9,33.7 12.9,61.4 C12.9,89 31.8,110.7 56,110.7 C56.1,110.7 56.2,110.7 56.2,110.7 C56.3,110.7 56.4,110.7 56.4,110.7 C77,110.7 94.5,101.4 108.4,83.2 C110.4,80.6 114.2,80 116.8,82.1 C119.4,84.1 120,87.9 117.9,90.5 C101.9,111.6 80.6,122.8 56.4,122.8 C56.3,122.8 56.2,122.8 56.2,122.8 C56.1,122.8 56,122.8 56,122.8 C25.1,122.8 0.9,95.9 0.9,61.5 C0.9,27.1 25.1,0.2 56,0.2 C56.1,0.2 56.2,0.2 56.2,0.2 C56.3,0.2 56.4,0.2 56.4,0.2 C91.2,0.2 120.3,23 132.3,59.6 C142.6,91.1 167.3,110.7 196.8,110.7 C221,110.7 239.9,89.1 239.9,61.4 C239.9,33.8 221,12.1 196.8,12.1 C176.2,12.1 158.7,21.4 144.8,39.6 C143.6,41.2 141.8,42 140,42 C138.7,42 137.5,41.6 136.4,40.8 C133.8,38.8 133.2,35 135.3,32.4 C151.3,11.3 172.6,0.1 196.8,0.1 C227.7,0.1 251.9,27 251.9,61.3 Z" id="Path"></path>
        </g>
    </g>
</svg>
