<?xml version="1.0" encoding="UTF-8"?>
<svg width="182px" height="182px" viewBox="0 0 182 182" version="1.1" xmlns="http://www.w3.org/2000/svg" xmlns:xlink="http://www.w3.org/1999/xlink">
    <g id="Page-1" stroke="none" stroke-width="1" fill="none" fill-rule="evenodd">
        <g fill="currentColor" fill-rule="nonzero">
            <path d="M159.5,181.3 L22.5,181.3 C10.5,181.3 0.8,171.6 0.8,159.6 L0.8,22.6 C0.8,10.6 10.5,0.9 22.5,0.9 L159.5,0.9 C171.5,0.9 181.2,10.6 181.2,22.6 L181.2,159.6 C181.2,171.6 171.5,181.3 159.5,181.3 Z M22.5,12.9 C17.1,12.9 12.8,17.3 12.8,22.6 L12.8,159.6 C12.8,165 17.2,169.3 22.5,169.3 L159.5,169.3 C164.9,169.3 169.2,164.9 169.2,159.6 L169.2,22.6 C169.2,17.2 164.8,12.9 159.5,12.9 L22.5,12.9 Z" id="Shape"></path>
        </g>
    </g>
</svg>
