<?xml version="1.0" encoding="UTF-8"?>
<svg width="236px" height="236px" viewBox="0 0 236 236" version="1.1" xmlns="http://www.w3.org/2000/svg" xmlns:xlink="http://www.w3.org/1999/xlink">
    <g id="Page-1" stroke="none" stroke-width="1" fill="none" fill-rule="evenodd">
        <g fill="currentColor" fill-rule="nonzero">
            <path d="M234.3,225.8 L168.9,160.4 C187.2,154.7 200.5,137.5 200.5,117.4 C200.5,94.6 183.5,75.6 161.4,72.7 L161.4,19.4 C161.4,11.9 157.3,5.2 150.6,2.1 C144.1,-1 136.5,-0.1 130.8,4.6 L70.4,62 L10.4,2.1 C8,-0.3 4.2,-0.3 1.9,2.1 C-0.5,4.4 -0.5,8.2 1.9,10.6 L54.7,63.4 L48.1,63.4 C35.8,63.4 25.8,73.4 25.8,85.6 L25.8,149.3 C25.8,161.6 35.8,171.5 48.1,171.5 L69,171.5 L130.5,229.9 L130.9,230.2 C134.4,233 138.6,234.4 142.8,234.4 C145.5,234.4 148.2,233.8 150.8,232.6 C157.4,229.4 161.6,222.8 161.6,215.3 L161.6,169.9 L225.9,234.2 C227.1,235.4 228.6,236 230.2,236 C231.7,236 233.2,235.4 234.4,234.2 C236.6,231.9 236.6,228.1 234.3,225.8 Z M65.4,159.4 L48.1,159.4 C42.4,159.4 37.8,154.8 37.8,149.2 L37.8,85.5 C37.8,79.9 42.4,75.3 48.1,75.3 L65.4,75.3 L65.4,159.4 Z M149.5,215.3 C149.5,218.2 148,220.6 145.6,221.8 C144.5,222.4 141.6,223.3 138.6,221 L77.4,162.9 L77.4,85.9 L149.4,157.9 L149.4,215.3 L149.5,215.3 Z M149.5,140.9 L78.9,70.3 L138.6,13.6 C141.6,11.3 144.4,12.2 145.6,12.8 C148,14 149.5,16.4 149.5,19.3 L149.5,140.9 Z M161.5,84.8 C176.9,87.6 188.6,101.1 188.6,117.4 C188.6,133.6 176.9,147.1 161.5,149.9 L161.5,84.8 Z" id="Shape"></path>
        </g>
    </g>
</svg>
