<?xml version="1.0" encoding="UTF-8"?>
<svg width="90px" height="88px" viewBox="0 0 90 88" version="1.1" xmlns="http://www.w3.org/2000/svg" xmlns:xlink="http://www.w3.org/1999/xlink">
    <g id="Page-1" stroke="none" stroke-width="1" fill="none" fill-rule="evenodd">
        <g fill="currentColor" transform="translate(0.000000, -1.000000)" fill-rule="nonzero">
            <path d="M65.53,24.38 L72.22,19.72 C63.7763422,10.5933585 51.3464854,6.26389994 39.06,8.17 L38.82,8.17 L37.54,8.41 L36.91,8.54 L36,8.78 L35,9 L34.52,9.14 C34.06,9.27 33.6,9.41 33.15,9.56 L33.05,9.56 C26.2278379,11.8645513 20.2121796,16.0821074 15.72,21.71 L15.72,21.71 C15.41,22.1 15.11,22.5 14.82,22.9 L14.56,23.25 C14.35,23.55 14.14,23.85 13.93,24.16 L13.46,24.86 L13.09,25.46 C12.87,25.81 12.66,26.17 12.45,26.53 L12.31,26.79 C8.27082342,34.050266 6.75494919,42.4456066 8,50.66 C8,50.8 8,50.93 8.06,51.07 C8.12,51.44 8.19,51.8 8.26,52.17 C8.33,52.54 8.37,52.72 8.43,52.99 C8.49,53.26 8.54,53.44 8.59,53.66 C8.69,54.07 8.79,54.48 8.9,54.88 L9,55.14 C12.8802448,68.8474052 24.2238203,79.1512822 38.24,81.7 C38.8733333,81.8133333 39.5033333,81.91 40.13,81.99 L40.27,81.99 C40.85,82.06 41.44,82.12 42.02,82.17 L42.11,82.17 C61.1388233,83.5417544 78.1398858,70.3445825 81.53,51.57 C81.7001603,50.3581765 82.5193977,49.3364305 83.6652578,48.9069244 C84.8111179,48.4774183 86.1001167,48.708928 87.0249004,49.5103305 C87.9496841,50.311733 88.3621691,51.5547016 88.1,52.75 C86.0656708,64.1290782 79.617519,74.2434032 70.16,80.89 C70.08,81 70,81 69.94,81.09 C62.6119355,86.2194202 53.8849115,88.973669 44.94,88.98 C42.3077874,88.98 39.6808349,88.7448854 37.09,88.28 C36.35,88.1466667 35.6166667,87.9966667 34.89,87.83 L34.64,87.77 C13.6703016,82.750525 -0.572478232,63.2746667 1,41.77 C1,41.77 1,41.72 1,41.69 C1,41.05 1.12,40.41 1.19,39.77 C1.19,39.66 1.19,39.56 1.19,39.45 C1.28333333,38.71 1.39666667,37.97 1.53,37.23 C1.79,35.7833333 2.12333333,34.3633333 2.53,32.97 C7.81023723,14.3769762 24.6060285,1.40689301 43.93,1 C46.8322758,0.946553666 49.7328043,1.17765813 52.59,1.69 C62.3435153,3.42259204 71.2167968,8.42351144 77.75,15.87 L84.98,10.87 C86.98,9.47 88.67,10.33 88.72,12.78 L89.14,33.27 C89.14,35.72 87.37,36.99 85.09,36.09 L66,28.55 C63.74,27.65 63.52,25.78 65.53,24.38 Z" id="Path"></path>
        </g>
    </g>
</svg>
